ISO-10303-21;
HEADER;
FILE_DESCRIPTION(('CATIA V5 STEP Exchange'),'2;1');

FILE_NAME('C:\\Users\\YHD\\Desktop\\4412.stp','2025-11-04T02:06:34+00:00',('none'),('none'),'CATIA Version 5 Release 21 GA (IN-10)','CATIA V5 STEP AP203','none');

FILE_SCHEMA(('CONFIG_CONTROL_DESIGN'));

ENDSEC;
/* file written by CATIA V5R21 */
DATA;
#5=PRODUCT('Part1','','',(#2)) ;
#1=APPLICATION_CONTEXT('configuration controlled 3D design of mechanical parts and assemblies') ;
#14=PRODUCT_DEFINITION('',' ',#6,#3) ;
#16=SECURITY_CLASSIFICATION(' ',' ',#15) ;
#15=SECURITY_CLASSIFICATION_LEVEL('unclassified') ;
#47=CARTESIAN_POINT(' ',(0.,0.,0.)) ;
#51=CARTESIAN_POINT('Point.1',(100.,0.13,0.)) ;
#55=CARTESIAN_POINT('Point.2',(95.,1.47,0.)) ;
#56=CARTESIAN_POINT('Point.3',(90.,2.71,0.)) ;
#57=CARTESIAN_POINT('Point.4',(80.,4.89,0.)) ;
#58=CARTESIAN_POINT('Point.5',(70.,6.69,0.)) ;
#59=CARTESIAN_POINT('Point.6',(60.,8.14,0.)) ;
#60=CARTESIAN_POINT('Point.7',(50.,9.19,0.)) ;
#61=CARTESIAN_POINT('Point.8',(40.,9.8,0.)) ;
#62=CARTESIAN_POINT('Point.9',(30.,9.76,0.)) ;
#63=CARTESIAN_POINT('Point.10',(25.,9.41,0.)) ;
#64=CARTESIAN_POINT('Point.11',(20.,8.8,0.)) ;
#65=CARTESIAN_POINT('Point.12',(15.,7.89,0.)) ;
#66=CARTESIAN_POINT('Point.13',(10.,6.59,0.)) ;
#67=CARTESIAN_POINT('Point.14',(7.5,5.76,0.)) ;
#68=CARTESIAN_POINT('Point.15',(5.,4.73,0.)) ;
#69=CARTESIAN_POINT('Point.16',(2.5,3.39,0.)) ;
#70=CARTESIAN_POINT('Point.17',(1.25,2.44,0.)) ;
#71=CARTESIAN_POINT('Point.18',(0.,0.,0.)) ;
#72=CARTESIAN_POINT('Point.19',(1.25,-1.43,0.)) ;
#73=CARTESIAN_POINT('Point.20',(2.5,-1.95,0.)) ;
#74=CARTESIAN_POINT('Point.21',(5.,-2.49,0.)) ;
#75=CARTESIAN_POINT('Point.22',(7.5,-2.74,0.)) ;
#76=CARTESIAN_POINT('Point.23',(10.,-2.86,0.)) ;
#77=CARTESIAN_POINT('Point.24',(15.,-2.88,0.)) ;
#78=CARTESIAN_POINT('Point.25',(20.,-2.74,0.)) ;
#79=CARTESIAN_POINT('Point.26',(25.,-2.5,0.)) ;
#80=CARTESIAN_POINT('Point.27',(30.,-2.26,0.)) ;
#81=CARTESIAN_POINT('Point.28',(40.,-1.8,0.)) ;
#82=CARTESIAN_POINT('Point.29',(50.,-1.4,0.)) ;
#83=CARTESIAN_POINT('Point.30',(60.,-1.,0.)) ;
#84=CARTESIAN_POINT('Point.31',(70.,-0.65,0.)) ;
#85=CARTESIAN_POINT('Point.32',(80.,-0.39,0.)) ;
#86=CARTESIAN_POINT('Point.33',(90.,-0.22,0.)) ;
#87=CARTESIAN_POINT('Point.34',(95.,-0.16,0.)) ;
#88=CARTESIAN_POINT('Point.35',(100.,-0.13,0.)) ;
#90=CARTESIAN_POINT('Control Point',(100.,0.13,0.)) ;
#91=CARTESIAN_POINT('Control Point',(100.500992077,-0.00930878956362,0.)) ;
#92=CARTESIAN_POINT('Control Point',(101.001656569,-0.149795663965,0.)) ;
#93=CARTESIAN_POINT('Control Point',(101.03999806,-0.127933275351,0.)) ;
#94=CARTESIAN_POINT('Control Point',(100.519998434,-0.128723963345,0.)) ;
#95=CARTESIAN_POINT('Control Point',(100.,-0.13,0.)) ;
#96=CARTESIAN_POINT('Limit',(100.,0.13,0.)) ;
#97=CARTESIAN_POINT('Limit',(100.,-0.13,0.)) ;
#101=CARTESIAN_POINT('Control Point',(100.,0.13,0.)) ;
#102=CARTESIAN_POINT('Control Point',(99.0024609329,0.407381552271,0.)) ;
#103=CARTESIAN_POINT('Control Point',(98.0036902397,0.680073820849,0.)) ;
#104=CARTESIAN_POINT('Control Point',(97.0036879202,0.948076805735,0.)) ;
#105=CARTESIAN_POINT('Control Point',(95.0060518514,1.47343349103,0.)) ;
#106=CARTESIAN_POINT('Control Point',(93.0035591898,1.98006404183,0.)) ;
#107=CARTESIAN_POINT('Control Point',(92.0035377923,2.22809298249,0.)) ;
#108=CARTESIAN_POINT('Control Point',(89.0131809007,2.95485566871,0.)) ;
#109=CARTESIAN_POINT('Control Point',(86.0125925907,3.63928941818,0.)) ;
#110=CARTESIAN_POINT('Control Point',(84.0123109344,4.07551054511,0.)) ;
#111=CARTESIAN_POINT('Control Point',(80.0182013384,4.90576602526,0.)) ;
#112=CARTESIAN_POINT('Control Point',(76.0094792974,5.66142637861,0.)) ;
#113=CARTESIAN_POINT('Control Point',(74.0091256348,6.02015163188,0.)) ;
#114=CARTESIAN_POINT('Control Point',(70.0137611604,6.70438258329,0.)) ;
#115=CARTESIAN_POINT('Control Point',(66.0076766967,7.32386170778,0.)) ;
#116=CARTESIAN_POINT('Control Point',(64.007681396,7.6160395335,0.)) ;
#117=CARTESIAN_POINT('Control Point',(60.0123558773,8.15918870559,0.)) ;
#118=CARTESIAN_POINT('Control Point',(56.0069797117,8.62063974301,0.)) ;
#119=CARTESIAN_POINT('Control Point',(54.0067760863,8.82989188388,0.)) ;
#120=CARTESIAN_POINT('Control Point',(50.0091163316,9.20991206352,0.)) ;
#121=CARTESIAN_POINT('Control Point',(46.0040035883,9.50782655397,0.)) ;
#122=CARTESIAN_POINT('Control Point',(44.0035959366,9.63437686872,0.)) ;
#123=CARTESIAN_POINT('Control Point',(40.0046316263,9.83233519385,0.)) ;
#124=CARTESIAN_POINT('Control Point',(36.0019362561,9.90046085285,0.)) ;
#125=CARTESIAN_POINT('Control Point',(34.0014964664,9.89708331783,0.)) ;
#126=CARTESIAN_POINT('Control Point',(30.9961167549,9.82878504881,0.)) ;
#127=CARTESIAN_POINT('Control Point',(27.9961938641,9.65660897987,0.)) ;
#128=CARTESIAN_POINT('Control Point',(26.9956993886,9.58704364737,0.)) ;
#129=CARTESIAN_POINT('Control Point',(24.9935333494,9.42243749196,0.)) ;
#130=CARTESIAN_POINT('Control Point',(22.997470096,9.20619911895,0.)) ;
#131=CARTESIAN_POINT('Control Point',(21.9981319893,9.08452613849,0.)) ;
#132=CARTESIAN_POINT('Control Point',(19.9897429675,8.81306318346,0.)) ;
#133=CARTESIAN_POINT('Control Point',(17.9866541774,8.4840001168,0.)) ;
#134=CARTESIAN_POINT('Control Point',(16.9837303825,8.30336717242,0.)) ;
#135=CARTESIAN_POINT('Control Point',(14.9777907108,7.90506674912,0.)) ;
#136=CARTESIAN_POINT('Control Point',(12.9952249169,7.43220634495,0.)) ;
#137=CARTESIAN_POINT('Control Point',(11.9991873788,7.17336310646,0.)) ;
#138=CARTESIAN_POINT('Control Point',(10.4843674473,6.7494246797,0.)) ;
#139=CARTESIAN_POINT('Control Point',(8.98630671621,6.27576046758,0.)) ;
#140=CARTESIAN_POINT('Control Point',(8.48426003546,6.1101506058,0.)) ;
#141=CARTESIAN_POINT('Control Point',(7.48204358926,5.76333923937,0.)) ;
#142=CARTESIAN_POINT('Control Point',(6.49983590535,5.38422237817,0.)) ;
#143=CARTESIAN_POINT('Control Point',(6.00463381184,5.18137550182,0.)) ;
#144=CARTESIAN_POINT('Control Point',(4.97470010296,4.73281115031,0.)) ;
#145=CARTESIAN_POINT('Control Point',(3.94748815733,4.22736602434,0.)) ;
#146=CARTESIAN_POINT('Control Point',(3.43163874281,3.95659406166,0.)) ;
#147=CARTESIAN_POINT('Control Point',(2.69393932791,3.5364455355,0.)) ;
#148=CARTESIAN_POINT('Control Point',(1.99986920801,3.05428813629,0.)) ;
#149=CARTESIAN_POINT('Control Point',(1.754226082,2.87021251684,0.)) ;
#150=CARTESIAN_POINT('Control Point',(1.0596328438,2.30897734636,0.)) ;
#151=CARTESIAN_POINT('Control Point',(0.377379051165,1.58580407354,0.)) ;
#152=CARTESIAN_POINT('Control Point',(-0.00393251869473,1.05421870287,0.)) ;
#153=CARTESIAN_POINT('Control Point',(-0.198934952428,0.129790076958,0.)) ;
#154=CARTESIAN_POINT('Control Point',(0.277527262483,-0.685813202267,0.)) ;
#155=CARTESIAN_POINT('Control Point',(0.574418318658,-0.983925247006,0.)) ;
#156=CARTESIAN_POINT('Control Point',(1.14252994921,-1.40539844962,0.)) ;
#157=CARTESIAN_POINT('Control Point',(1.74647022547,-1.69172045349,0.)) ;
#158=CARTESIAN_POINT('Control Point',(1.99583506114,-1.78963300017,0.)) ;
#159=CARTESIAN_POINT('Control Point',(2.72017266688,-2.03404731319,0.)) ;
#160=CARTESIAN_POINT('Control Point',(3.4674689434,-2.20478759312,0.)) ;
#161=CARTESIAN_POINT('Control Point',(3.97542103868,-2.31520474896,0.)) ;
#162=CARTESIAN_POINT('Control Point',(4.99128741825,-2.50485471402,0.)) ;
#163=CARTESIAN_POINT('Control Point',(6.00581345559,-2.62948901997,0.)) ;
#164=CARTESIAN_POINT('Control Point',(6.50362995124,-2.67358105784,0.)) ;
#165=CARTESIAN_POINT('Control Point',(7.49685462076,-2.7447129399,0.)) ;
#166=CARTESIAN_POINT('Control Point',(8.49504465177,-2.7965229435,0.)) ;
#167=CARTESIAN_POINT('Control Point',(8.99590536486,-2.82113434767,0.)) ;
#168=CARTESIAN_POINT('Control Point',(10.5005845806,-2.88533892697,0.)) ;
#169=CARTESIAN_POINT('Control Point',(12.007158583,-2.91386777114,0.)) ;
#170=CARTESIAN_POINT('Control Point',(13.0050613279,-2.91084567153,0.)) ;
#171=CARTESIAN_POINT('Control Point',(14.999660062,-2.88571492203,0.)) ;
#172=CARTESIAN_POINT('Control Point',(16.9971508975,-2.83769640717,0.)) ;
#173=CARTESIAN_POINT('Control Point',(17.9983305796,-2.81178392498,0.)) ;
#174=CARTESIAN_POINT('Control Point',(20.0013920718,-2.74641711451,0.)) ;
#175=CARTESIAN_POINT('Control Point',(22.0019233173,-2.65526307724,0.)) ;
#176=CARTESIAN_POINT('Control Point',(23.0013308878,-2.60353439484,0.)) ;
#177=CARTESIAN_POINT('Control Point',(24.9998087119,-2.49882744208,0.)) ;
#178=CARTESIAN_POINT('Control Point',(26.9990516884,-2.39881072101,0.)) ;
#179=CARTESIAN_POINT('Control Point',(27.9992244115,-2.3517722703,0.)) ;
#180=CARTESIAN_POINT('Control Point',(31.0001615922,-2.2138306529,0.)) ;
#181=CARTESIAN_POINT('Control Point',(34.0013300744,-2.07763984072,0.)) ;
#182=CARTESIAN_POINT('Control Point',(36.0007375711,-1.98074500272,0.)) ;
#183=CARTESIAN_POINT('Control Point',(39.9991142939,-1.79473588643,0.)) ;
#184=CARTESIAN_POINT('Control Point',(43.998974123,-1.62987358102,0.)) ;
#185=CARTESIAN_POINT('Control Point',(45.9993495396,-1.55414705459,0.)) ;
#186=CARTESIAN_POINT('Control Point',(50.0001439001,-1.4017723267,0.)) ;
#187=CARTESIAN_POINT('Control Point',(54.0003626602,-1.24230829201,0.)) ;
#188=CARTESIAN_POINT('Control Point',(56.0001624763,-1.15949245879,0.)) ;
#189=CARTESIAN_POINT('Control Point',(59.9994684211,-0.996772137259,0.)) ;
#190=CARTESIAN_POINT('Control Point',(63.9994029395,-0.847021772189,0.)) ;
#191=CARTESIAN_POINT('Control Point',(65.9994568281,-0.777189513898,0.)) ;
#192=CARTESIAN_POINT('Control Point',(69.9993314925,-0.645733352773,0.)) ;
#193=CARTESIAN_POINT('Control Point',(73.9996862092,-0.531411182321,0.)) ;
#194=CARTESIAN_POINT('Control Point',(75.9996716867,-0.478729609537,0.)) ;
#195=CARTESIAN_POINT('Control Point',(79.999502361,-0.384955619574,0.)) ;
#196=CARTESIAN_POINT('Control Point',(83.9997763176,-0.311391515432,0.)) ;
#197=CARTESIAN_POINT('Control Point',(85.999818266,-0.278928346904,0.)) ;
#198=CARTESIAN_POINT('Control Point',(88.9998577999,-0.232523391165,0.)) ;
#199=CARTESIAN_POINT('Control Point',(91.9999701769,-0.192747565361,0.)) ;
#200=CARTESIAN_POINT('Control Point',(92.9999673605,-0.180403637448,0.)) ;
#201=CARTESIAN_POINT('Control Point',(94.999931903,-0.158425657448,0.)) ;
#202=CARTESIAN_POINT('Control Point',(96.9999528537,-0.142747080923,0.)) ;
#203=CARTESIAN_POINT('Control Point',(97.9999524502,-0.136703029126,0.)) ;
#204=CARTESIAN_POINT('Control Point',(98.9999681656,-0.132454002151,0.)) ;
#205=CARTESIAN_POINT('Control Point',(100.,-0.13,0.)) ;
#206=CARTESIAN_POINT('Limit',(100.,0.13,0.)) ;
#207=CARTESIAN_POINT('Limit',(100.,-0.13,0.)) ;
#48=AXIS2_PLACEMENT_3D(' ',#47,$,$) ;
#40=PRODUCT_DEFINITION_SHAPE(' ',' ',#14) ;
#210=COMPOSITE_CURVE('Join.1',(#99,#209),.U.) ;
#99=COMPOSITE_CURVE_SEGMENT(.CONTINUOUS.,.T.,#98) ;
#209=COMPOSITE_CURVE_SEGMENT(.DISCONTINUOUS.,.F.,#208) ;
#31=APPROVAL_PERSON_ORGANIZATION(#25,#21,#19) ;
#25=PERSON_AND_ORGANIZATION(#22,#23) ;
#22=PERSON(' ',' ',' ',$,$,$) ;
#23=ORGANIZATION(' ',' ',' ') ;
#21=APPROVAL(#20,' ') ;
#20=APPROVAL_STATUS('not_yet_approved') ;
#19=APPROVAL_ROLE('APPROVER') ;
#13=DATE_AND_TIME(#11,#12) ;
#12=LOCAL_TIME(11,6,34.,#10) ;
#10=COORDINATED_UNIVERSAL_TIME_OFFSET(0,0,.AHEAD.) ;
#49=SHAPE_REPRESENTATION(' ',(#48),#46) ;
#4=APPLICATION_PROTOCOL_DEFINITION('international standard','config_control_design',1994,#1) ;
#32=APPROVAL_DATE_TIME(#13,#21) ;
#89=B_SPLINE_CURVE_WITH_KNOTS('',5,(#90,#91,#92,#93,#94,#95),.UNSPECIFIED.,.F.,.U.,(6,6),(0.,0.26),.UNSPECIFIED.) ;
#100=B_SPLINE_CURVE_WITH_KNOTS('',5,(#101,#102,#103,#104,#105,#106,#107,#108,#109,#110,#111,#112,#113,#114,#115,#116,#117,#118,#119,#120,#121,#122,#123,#124,#125,#126,#127,#128,#129,#130,#131,#132,#133,#134,#135,#136,#137,#138,#139,#140,#141,#142,#143,#144,#145,#146,#147,#148,#149,#150,#151,#152,#153,#154,#155,#156,#157,#158,#159,#160,#161,#162,#163,#164,#165,#166,#167,#168,#169,#170,#171,#172,#173,#174,#175,#176,#177,#178,#179,#180,#181,#182,#183,#184,#185,#186,#187,#188,#189,#190,#191,#192,#193,#194,#195,#196,#197,#198,#199,#200,#201,#202,#203,#204,#205),.UNSPECIFIED.,.F.,.U.,(6,3,3,3,3,3,3,3,3,3,3,3,3,3,3,3,3,3,3,3,3,3,3,3,3,3,3,3,3,3,3,3,3,3,6),(0.,5.1764466577,10.3279124685,20.5627744607,30.7234830974,40.8280612678,50.8830351613,60.9016228861,70.9017028858,75.9139379162,80.9510104787,86.0331458567,91.1993823979,93.833561587,96.5374291873,99.373905875,100.943937722,103.685488378,105.584804044,106.938650417,109.496305593,112.008774498,114.511652841,119.511692841,124.513652457,129.519409143,134.525165829,144.535740238,154.543737041,164.551733843,174.557856969,184.561236397,194.562681293,199.56304128,204.563131279),.UNSPECIFIED.) ;
#11=CALENDAR_DATE(2025,4,11) ;
#30=CC_DESIGN_APPROVAL(#21,(#16,#6,#14)) ;
#18=CC_DESIGN_DATE_AND_TIME_ASSIGNMENT(#13,#17,(#16)) ;
#29=CC_DESIGN_DATE_AND_TIME_ASSIGNMENT(#13,#28,(#14)) ;
#17=DATE_TIME_ROLE('classification_date') ;
#28=DATE_TIME_ROLE('creation_date') ;
#27=CC_DESIGN_PERSON_AND_ORGANIZATION_ASSIGNMENT(#25,#26,(#16)) ;
#33=CC_DESIGN_PERSON_AND_ORGANIZATION_ASSIGNMENT(#25,#34,(#6)) ;
#35=CC_DESIGN_PERSON_AND_ORGANIZATION_ASSIGNMENT(#25,#36,(#6,#14)) ;
#37=CC_DESIGN_PERSON_AND_ORGANIZATION_ASSIGNMENT(#25,#38,(#5)) ;
#26=PERSON_AND_ORGANIZATION_ROLE('classification_officer') ;
#34=PERSON_AND_ORGANIZATION_ROLE('design_supplier') ;
#36=PERSON_AND_ORGANIZATION_ROLE('creator') ;
#38=PERSON_AND_ORGANIZATION_ROLE('design_owner') ;
#39=CC_DESIGN_SECURITY_CLASSIFICATION(#16,(#6)) ;
#54=SHAPE_REPRESENTATION_RELATIONSHIP(' ',' ',#49,#52) ;
#3=DESIGN_CONTEXT(' ',#1,'design') ;
#53=GEOMETRIC_SET('NONE',(#51,#55,#56,#57,#58,#59,#60,#61,#62,#63,#64,#65,#66,#67,#68,#69,#70,#71,#72,#73,#74,#75,#76,#77,#78,#79,#80,#81,#82,#83,#84,#85,#86,#87,#88,#210)) ;
#52=GEOMETRICALLY_BOUNDED_SURFACE_SHAPE_REPRESENTATION('NONE',(#53),#46) ;
#45=UNCERTAINTY_MEASURE_WITH_UNIT(LENGTH_MEASURE(0.005),#41,'distance_accuracy_value','CONFUSED CURVE UNCERTAINTY') ;
#2=MECHANICAL_CONTEXT(' ',#1,'mechanical') ;
#24=PERSONAL_ADDRESS(' ',' ',' ',' ',' ',' ',' ',' ',' ',' ',' ',' ',(#22),' ') ;
#43=PLANE_ANGLE_MEASURE_WITH_UNIT(PLANE_ANGLE_MEASURE(0.0174532925199),#42) ;
#7=PRODUCT_CATEGORY('part',$) ;
#9=PRODUCT_CATEGORY_RELATIONSHIP(' ',' ',#7,#8) ;
#6=PRODUCT_DEFINITION_FORMATION_WITH_SPECIFIED_SOURCE('',' ',#5,.NOT_KNOWN.) ;
#8=PRODUCT_RELATED_PRODUCT_CATEGORY('detail',$,(#5)) ;
#50=SHAPE_DEFINITION_REPRESENTATION(#40,#49) ;
#98=TRIMMED_CURVE('',#89,(#96),(#97),.T.,.CARTESIAN.) ;
#208=TRIMMED_CURVE('',#100,(#206),(#207),.T.,.CARTESIAN.) ;
#41=(LENGTH_UNIT()NAMED_UNIT(*)SI_UNIT(.MILLI.,.METRE.)) ;
#42=(NAMED_UNIT(*)PLANE_ANGLE_UNIT()SI_UNIT($,.RADIAN.)) ;
#44=(NAMED_UNIT(*)SI_UNIT($,.STERADIAN.)SOLID_ANGLE_UNIT()) ;
#46=(GEOMETRIC_REPRESENTATION_CONTEXT(3)GLOBAL_UNCERTAINTY_ASSIGNED_CONTEXT((#45))GLOBAL_UNIT_ASSIGNED_CONTEXT((#41,#42,#44))REPRESENTATION_CONTEXT(' ',' ')) ;
ENDSEC;
END-ISO-10303-21;
